<mxfile host="app.diagrams.net" modified="2024-05-09T11:24:54.126Z" agent="Mozilla/5.0 (Windows NT 10.0; Win64; x64) AppleWebKit/537.36 (KHTML, like Gecko) Chrome/124.0.0.0 Safari/537.36" version="24.3.1" etag="rGRsXmTzScRXSYkKAubk" type="github">
  <diagram name="Trang-1" id="xaRGh3N69xdBcvp7hbYD">
    <mxGraphModel>
      <root>
        <mxCell id="0" />
        <mxCell id="1" parent="0" />
      </root>
    </mxGraphModel>
  </diagram>
</mxfile>
